PathFileType	4	(X/Y/Z)	 staticP091.trc
DataRate	CameraRate	NumFrames	NumMarkers	Units	OrigDataRate	OrigDataStartFrame	OrigNumFrames
100	100	7	53	M	100	63	100
Frame#	Time	RM1D			RM5D			RM2B			LM1D			LM5D			LM2B			RCAL			LCAL			RLMAL			LLMAL			RMMAL			LMMAL			RSTL			LSTL			RFLE			RFME			LFME			LFLE			RHFIB			LHFIB			RTTUB			LTTUB			RSSH			LSSH			RTL			LTL			RTAP			RTAD			LTAP			LTAD			RTPP			RTPD			LTPP			LTPD			RPSIS			LPSIS			RASIS			LASIS			T10			T2			IJ			SA			RACR			LACR			RHLE			LHLE			RUSP			LUSP			RCB			LCB			IN			LHME			RHME			
		X1	Y1	Z1	X2	Y2	Z2	X3	Y3	Z3	X4	Y4	Z4	X5	Y5	Z5	X6	Y6	Z6	X7	Y7	Z7	X8	Y8	Z8	X9	Y9	Z9	X10	Y10	Z10	X11	Y11	Z11	X12	Y12	Z12	X13	Y13	Z13	X14	Y14	Z14	X15	Y15	Z15	X16	Y16	Z16	X17	Y17	Z17	X18	Y18	Z18	X19	Y19	Z19	X20	Y20	Z20	X21	Y21	Z21	X22	Y22	Z22	X23	Y23	Z23	X24	Y24	Z24	X25	Y25	Z25	X26	Y26	Z26	X27	Y27	Z27	X28	Y28	Z28	X29	Y29	Z29	X30	Y30	Z30	X31	Y31	Z31	X32	Y32	Z32	X33	Y33	Z33	X34	Y34	Z34	X35	Y35	Z35	X36	Y36	Z36	X37	Y37	Z37	X38	Y38	Z38	X39	Y39	Z39	X40	Y40	Z40	X41	Y41	Z41	X42	Y42	Z42	X43	Y43	Z43	X44	Y44	Z44	X45	Y45	Z45	X46	Y46	Z46	X47	Y47	Z47	X48	Y48	Z48	X49	Y49	Z49	X50	Y50	Z50	X51	Y51	Z51	X52	Y52	Z52	X53	Y53	Z53	
63	0.6300	-0.106084	0.042483	-0.152330	-0.146414	0.029142	-0.089462	-0.157135	0.052504	-0.127939	-0.110408	0.043553	-0.355099	-0.146337	0.024792	-0.428296	-0.159171	0.051184	-0.385113	-0.302267	0.050744	-0.161954	-0.308713	0.049278	-0.356915	-0.256247	0.068357	-0.117207	-0.260672	0.069295	-0.397205	-0.231824	0.087513	-0.196981	-0.236255	0.078043	-0.319178	-0.250214	0.035476	-0.191926	-0.266488	0.038659	-0.328741	-0.199712	0.460631	-0.118313	-0.206407	0.441742	-0.220461	-0.206268	0.453092	-0.287236	-0.202819	0.466531	-0.394829	-0.232463	0.413089	-0.106479	-0.236615	0.412680	-0.410052	-0.185831	0.395389	-0.149673	-0.186640	0.395263	-0.355165	-0.199149	0.305762	-0.164051	-0.210213	0.195622	-0.356659	-0.173432	0.658862	-0.076589	-0.187694	0.662906	-0.429489	-0.071162	0.709515	-0.152512	-0.096384	0.616963	-0.155168	-0.073924	0.716212	-0.354551	-0.100338	0.617961	-0.353173	-0.281928	0.682119	-0.143919	-0.282452	0.606597	-0.148768	-0.280722	0.681990	-0.363209	-0.285755	0.612225	-0.358956	-0.272522	0.971153	-0.192991	-0.274622	0.971412	-0.292401	-0.080943	0.914991	-0.130193	-0.079177	0.927561	-0.358384	-0.251225	1.125361	-0.244593	-0.274426	1.338532	-0.236117	-0.123339	1.338485	-0.238140	-0.096985	1.303594	-0.233892	-0.201389	1.352024	-0.061938	-0.194045	1.372719	-0.412667	-0.200400	1.044076	-0.009597	-0.215037	1.062457	-0.467975	-0.174049	0.843613	0.089092	-0.212463	0.860244	-0.581415	-0.102702	1.488576	-0.179072	-0.115881	1.501025	-0.298550	-0.249679	1.421717	-0.230971	-0.166143	1.047759	-0.429575	-0.157581	1.025890	-0.063635	
64	0.6400	-0.106086	0.042482	-0.152348	-0.146426	0.029137	-0.089455	-0.157146	0.052501	-0.127948	-0.110420	0.043539	-0.355086	-0.146327	0.024795	-0.428306	-0.159177	0.051218	-0.385113	-0.302262	0.050732	-0.161945	-0.308694	0.049268	-0.356919	-0.256257	0.068379	-0.117207	-0.260647	0.069310	-0.397200	-0.231876	0.087508	-0.196989	-0.236249	0.078039	-0.319156	-0.250201	0.035467	-0.191924	-0.266510	0.038678	-0.328726	-0.199692	0.460624	-0.118312	-0.206383	0.441740	-0.220453	-0.206236	0.453096	-0.287201	-0.202771	0.466553	-0.394808	-0.232446	0.413074	-0.106453	-0.236588	0.412685	-0.410053	-0.185852	0.395388	-0.149659	-0.186612	0.395246	-0.355147	-0.199137	0.305759	-0.164056	-0.210199	0.195616	-0.356646	-0.173371	0.658854	-0.076572	-0.187741	0.662911	-0.429432	-0.070958	0.709557	-0.152443	-0.096319	0.616970	-0.155124	-0.073863	0.716230	-0.354506	-0.100255	0.617981	-0.353154	-0.281888	0.682131	-0.143855	-0.282399	0.606593	-0.148722	-0.280689	0.681997	-0.363184	-0.285700	0.612229	-0.358922	-0.272458	0.971155	-0.192955	-0.274564	0.971415	-0.292308	-0.080846	0.914986	-0.130164	-0.079139	0.927538	-0.358422	-0.251176	1.125354	-0.244516	-0.274396	1.338511	-0.235982	-0.123378	1.338432	-0.238052	-0.096985	1.303580	-0.233761	-0.201399	1.351887	-0.061804	-0.194006	1.372758	-0.412508	-0.200445	1.043930	-0.009544	-0.214984	1.062470	-0.467895	-0.174171	0.843480	0.089042	-0.212365	0.860295	-0.581393	-0.102772	1.488611	-0.178945	-0.115928	1.501048	-0.298388	-0.249669	1.421670	-0.230808	-0.166128	1.047773	-0.429498	-0.157605	1.025798	-0.063634	
65	0.6500	-0.106082	0.042496	-0.152349	-0.146423	0.029144	-0.089457	-0.157158	0.052490	-0.127945	-0.110418	0.043547	-0.355089	-0.146320	0.024813	-0.428291	-0.159116	0.051232	-0.385131	-0.302270	0.050760	-0.161931	-0.308681	0.049260	-0.356913	-0.256222	0.068362	-0.117215	-0.260658	0.069325	-0.397188	-0.231840	0.087513	-0.196971	-0.236276	0.078053	-0.319138	-0.250183	0.035464	-0.191924	-0.266503	0.038669	-0.328735	-0.199654	0.460607	-0.118299	-0.206332	0.441760	-0.220445	-0.206203	0.453086	-0.287190	-0.202732	0.466551	-0.394796	-0.232418	0.413062	-0.106460	-0.236576	0.412688	-0.410029	-0.185818	0.395389	-0.149679	-0.186572	0.395267	-0.355141	-0.199110	0.305765	-0.164038	-0.210177	0.195630	-0.356650	-0.173298	0.658829	-0.076563	-0.187693	0.662911	-0.429449	-0.070998	0.709458	-0.152441	-0.096270	0.616938	-0.155117	-0.073810	0.716230	-0.354500	-0.100235	0.617971	-0.353168	-0.281828	0.682134	-0.143811	-0.282350	0.606621	-0.148677	-0.280626	0.681997	-0.363148	-0.285647	0.612235	-0.358870	-0.272387	0.971139	-0.192887	-0.274502	0.971406	-0.292264	-0.080768	0.914962	-0.130134	-0.079071	0.927565	-0.358357	-0.251122	1.125337	-0.244447	-0.274371	1.338487	-0.235858	-0.123316	1.338412	-0.237881	-0.097000	1.303512	-0.233646	-0.201436	1.351775	-0.061689	-0.194003	1.372786	-0.412355	-0.200484	1.043822	-0.009547	-0.214907	1.062462	-0.467833	-0.174284	0.843325	0.089001	-0.212266	0.860324	-0.581356	-0.102824	1.488655	-0.178774	-0.115958	1.501091	-0.298238	-0.249659	1.421627	-0.230649	-0.166109	1.047792	-0.429394	-0.157618	1.025683	-0.063585	
66	0.6600	-0.106068	0.042489	-0.152338	-0.146419	0.029151	-0.089463	-0.157142	0.052502	-0.127945	-0.110390	0.043548	-0.355099	-0.146326	0.024823	-0.428289	-0.159129	0.051215	-0.385115	-0.302261	0.050766	-0.161942	-0.308676	0.049269	-0.356907	-0.256225	0.068363	-0.117221	-0.260642	0.069343	-0.397186	-0.231873	0.087519	-0.196981	-0.236227	0.078030	-0.319151	-0.250210	0.035479	-0.191916	-0.266478	0.038680	-0.328735	-0.199629	0.460607	-0.118278	-0.206326	0.441751	-0.220441	-0.206189	0.453064	-0.287195	-0.202720	0.466562	-0.394781	-0.232385	0.413066	-0.106437	-0.236551	0.412698	-0.410005	-0.185780	0.395367	-0.149624	-0.186568	0.395256	-0.355148	-0.199107	0.305747	-0.164021	-0.210103	0.195636	-0.356628	-0.173198	0.658810	-0.076549	-0.187602	0.662882	-0.429417	-0.070836	0.709521	-0.152403	-0.096232	0.616926	-0.155096	-0.073805	0.716239	-0.354503	-0.100195	0.617984	-0.353152	-0.281765	0.682142	-0.143778	-0.282304	0.606625	-0.148645	-0.280576	0.681991	-0.363122	-0.285597	0.612238	-0.358836	-0.272327	0.971112	-0.192836	-0.274444	0.971395	-0.292215	-0.080728	0.914961	-0.130096	-0.079080	0.927530	-0.358373	-0.251069	1.125316	-0.244366	-0.274349	1.338460	-0.235744	-0.123340	1.338339	-0.237749	-0.097014	1.303484	-0.233499	-0.201455	1.351667	-0.061568	-0.193983	1.372780	-0.412224	-0.200527	1.043703	-0.009517	-0.214868	1.062488	-0.467761	-0.174411	0.843174	0.088958	-0.212178	0.860375	-0.581340	-0.102748	1.488687	-0.178627	-0.116022	1.501121	-0.298087	-0.249671	1.421580	-0.230486	-0.166031	1.047788	-0.429350	-0.157648	1.025570	-0.063563	
67	0.6700	-0.106093	0.042484	-0.152339	-0.146428	0.029147	-0.089450	-0.157144	0.052503	-0.127944	-0.110410	0.043559	-0.355089	-0.146328	0.024799	-0.428288	-0.159160	0.051210	-0.385114	-0.302271	0.050758	-0.161944	-0.308681	0.049277	-0.356906	-0.256232	0.068363	-0.117228	-0.260648	0.069328	-0.397201	-0.231879	0.087489	-0.196983	-0.236222	0.078038	-0.319118	-0.250206	0.035479	-0.191923	-0.266500	0.038679	-0.328726	-0.199598	0.460607	-0.118266	-0.206282	0.441760	-0.220405	-0.206113	0.453055	-0.287182	-0.202692	0.466563	-0.394772	-0.232382	0.413048	-0.106424	-0.236527	0.412683	-0.409999	-0.185808	0.395375	-0.149621	-0.186530	0.395240	-0.355125	-0.199089	0.305728	-0.164004	-0.210133	0.195615	-0.356620	-0.173156	0.658818	-0.076513	-0.187570	0.662904	-0.429408	-0.070888	0.709490	-0.152422	-0.096178	0.616914	-0.155090	-0.073716	0.716237	-0.354483	-0.100191	0.617968	-0.353138	-0.281715	0.682156	-0.143728	-0.282273	0.606633	-0.148636	-0.280532	0.681995	-0.363079	-0.285562	0.612227	-0.358812	-0.272264	0.971085	-0.192809	-0.274378	0.971366	-0.292170	-0.080626	0.914932	-0.130070	-0.079043	0.927522	-0.358372	-0.251066	1.125293	-0.244308	-0.274351	1.338443	-0.235629	-0.123278	1.338365	-0.237602	-0.097007	1.303447	-0.233410	-0.201436	1.351556	-0.061416	-0.193981	1.372807	-0.412074	-0.200619	1.043606	-0.009520	-0.214792	1.062500	-0.467701	-0.174550	0.843008	0.088905	-0.212099	0.860421	-0.581325	-0.102821	1.488702	-0.178487	-0.116089	1.501144	-0.297937	-0.249670	1.421525	-0.230319	-0.165964	1.047808	-0.429287	-0.157694	1.025458	-0.063532	
68	0.6800	-0.106089	0.042493	-0.152340	-0.146411	0.029150	-0.089452	-0.157150	0.052501	-0.127941	-0.110416	0.043539	-0.355103	-0.146350	0.024775	-0.428293	-0.159181	0.051194	-0.385126	-0.302286	0.050761	-0.161961	-0.308696	0.049291	-0.356904	-0.256230	0.068352	-0.117226	-0.260673	0.069336	-0.397178	-0.231855	0.087498	-0.196984	-0.236238	0.078019	-0.319128	-0.250200	0.035476	-0.191929	-0.266519	0.038681	-0.328717	-0.199555	0.460595	-0.118262	-0.206267	0.441754	-0.220400	-0.206069	0.453045	-0.287164	-0.202663	0.466549	-0.394748	-0.232353	0.413076	-0.106402	-0.236500	0.412693	-0.409968	-0.185773	0.395343	-0.149608	-0.186502	0.395231	-0.355098	-0.199077	0.305727	-0.163993	-0.210168	0.195597	-0.356603	-0.173035	0.658794	-0.076503	-0.187598	0.662886	-0.429398	-0.070721	0.709475	-0.152382	-0.096144	0.616894	-0.155076	-0.073694	0.716228	-0.354486	-0.100160	0.617980	-0.353130	-0.281649	0.682162	-0.143691	-0.282221	0.606637	-0.148610	-0.280516	0.681987	-0.363058	-0.285553	0.612232	-0.358808	-0.272208	0.971078	-0.192771	-0.274331	0.971370	-0.292129	-0.080545	0.914917	-0.130043	-0.078960	0.927517	-0.358374	-0.251028	1.125268	-0.244230	-0.274344	1.338418	-0.235491	-0.123304	1.338298	-0.237494	-0.096965	1.303427	-0.233265	-0.201424	1.351442	-0.061264	-0.193954	1.372785	-0.411925	-0.200667	1.043482	-0.009530	-0.214768	1.062545	-0.467613	-0.174688	0.842849	0.088857	-0.212017	0.860481	-0.581306	-0.102805	1.488739	-0.178313	-0.116156	1.501175	-0.297807	-0.249685	1.421481	-0.230161	-0.165907	1.047841	-0.429248	-0.157708	1.025359	-0.063478	
69	0.6900	-0.106072	0.042472	-0.152343	-0.146413	0.029137	-0.089462	-0.157162	0.052496	-0.127951	-0.110415	0.043546	-0.355109	-0.146327	0.024780	-0.428294	-0.159201	0.051168	-0.385121	-0.302256	0.050750	-0.161962	-0.308687	0.049282	-0.356909	-0.256237	0.068357	-0.117221	-0.260632	0.069333	-0.397173	-0.231845	0.087500	-0.196984	-0.236211	0.078032	-0.319137	-0.250238	0.035487	-0.191928	-0.266485	0.038659	-0.328713	-0.199530	0.460609	-0.118237	-0.206261	0.441745	-0.220400	-0.206030	0.453044	-0.287164	-0.202632	0.466550	-0.394730	-0.232325	0.413037	-0.106405	-0.236487	0.412682	-0.409969	-0.185708	0.395363	-0.149588	-0.186498	0.395240	-0.355102	-0.199068	0.305728	-0.164010	-0.210143	0.195602	-0.356600	-0.172997	0.658774	-0.076480	-0.187470	0.662938	-0.429361	-0.070831	0.709378	-0.152431	-0.096077	0.616890	-0.155092	-0.073648	0.716238	-0.354488	-0.100132	0.617957	-0.353133	-0.281608	0.682172	-0.143676	-0.282186	0.606653	-0.148596	-0.280488	0.681989	-0.363041	-0.285505	0.612222	-0.358765	-0.272159	0.971062	-0.192732	-0.274273	0.971351	-0.292080	-0.080486	0.914905	-0.130032	-0.078909	0.927518	-0.358356	-0.250995	1.125248	-0.244165	-0.274334	1.338383	-0.235368	-0.123315	1.338284	-0.237354	-0.096967	1.303367	-0.233144	-0.201465	1.351329	-0.061155	-0.193976	1.372821	-0.411792	-0.200750	1.043358	-0.009532	-0.214694	1.062571	-0.467543	-0.174827	0.842703	0.088825	-0.211930	0.860556	-0.581295	-0.102833	1.488787	-0.178221	-0.116221	1.501217	-0.297635	-0.249705	1.421447	-0.230007	-0.165827	1.047874	-0.429170	-0.157747	1.025242	-0.063439	
